<mxfile host="app.diagrams.net" agent="Mozilla/5.0 (Windows NT 10.0; Win64; x64) AppleWebKit/537.36 (KHTML, like Gecko) Chrome/141.0.0.0 Safari/537.36 Edg/141.0.0.0" version="28.2.5">
  <diagram name="PÃ¡gina-1" id="ybxMegu20QLMTT6GTvBc">
    <mxGraphModel dx="591" dy="-383" grid="1" gridSize="10" guides="1" tooltips="1" connect="1" arrows="1" fold="1" page="1" pageScale="1" pageWidth="827" pageHeight="1169" math="0" shadow="0">
      <root>
        <mxCell id="0" />
        <mxCell id="1" parent="0" />
        <mxCell id="Gb_D7QVCogXqmU0bzWKU-245" value="" style="edgeStyle=orthogonalEdgeStyle;rounded=0;orthogonalLoop=1;jettySize=auto;html=1;" edge="1" parent="1" source="Gb_D7QVCogXqmU0bzWKU-246" target="Gb_D7QVCogXqmU0bzWKU-249">
          <mxGeometry relative="1" as="geometry" />
        </mxCell>
        <mxCell id="Gb_D7QVCogXqmU0bzWKU-246" value="inicio" style="ellipse;whiteSpace=wrap;html=1;" vertex="1" parent="1">
          <mxGeometry x="1317" y="1350" width="120" height="80" as="geometry" />
        </mxCell>
        <mxCell id="Gb_D7QVCogXqmU0bzWKU-247" value="&lt;div&gt;contador = 0&lt;/div&gt;&lt;div&gt;mult = 0&lt;/div&gt;" style="rounded=0;whiteSpace=wrap;html=1;" vertex="1" parent="1">
          <mxGeometry x="1317" y="1460" width="120" height="60" as="geometry" />
        </mxCell>
        <mxCell id="Gb_D7QVCogXqmU0bzWKU-248" style="edgeStyle=orthogonalEdgeStyle;rounded=0;orthogonalLoop=1;jettySize=auto;html=1;" edge="1" parent="1" source="Gb_D7QVCogXqmU0bzWKU-249" target="Gb_D7QVCogXqmU0bzWKU-252">
          <mxGeometry relative="1" as="geometry" />
        </mxCell>
        <mxCell id="Gb_D7QVCogXqmU0bzWKU-249" value="ler n" style="shape=parallelogram;perimeter=parallelogramPerimeter;whiteSpace=wrap;html=1;fixedSize=1;" vertex="1" parent="1">
          <mxGeometry x="1317" y="1540" width="120" height="60" as="geometry" />
        </mxCell>
        <mxCell id="Gb_D7QVCogXqmU0bzWKU-250" value="&lt;div&gt;contador++&lt;/div&gt;" style="rounded=0;whiteSpace=wrap;html=1;" vertex="1" parent="1">
          <mxGeometry x="1307" y="1630" width="120" height="60" as="geometry" />
        </mxCell>
        <mxCell id="Gb_D7QVCogXqmU0bzWKU-251" style="edgeStyle=orthogonalEdgeStyle;rounded=0;orthogonalLoop=1;jettySize=auto;html=1;entryX=0;entryY=0.5;entryDx=0;entryDy=0;" edge="1" parent="1" source="Gb_D7QVCogXqmU0bzWKU-252" target="Gb_D7QVCogXqmU0bzWKU-255">
          <mxGeometry relative="1" as="geometry" />
        </mxCell>
        <mxCell id="Gb_D7QVCogXqmU0bzWKU-252" value="Escrever N+ &quot;x&quot; + Contador+ &quot;=&quot; + N*Cont" style="shape=parallelogram;perimeter=parallelogramPerimeter;whiteSpace=wrap;html=1;fixedSize=1;" vertex="1" parent="1">
          <mxGeometry x="1230" y="1740" width="280" height="60" as="geometry" />
        </mxCell>
        <mxCell id="Gb_D7QVCogXqmU0bzWKU-253" style="edgeStyle=orthogonalEdgeStyle;rounded=0;orthogonalLoop=1;jettySize=auto;html=1;" edge="1" parent="1" source="Gb_D7QVCogXqmU0bzWKU-255" target="Gb_D7QVCogXqmU0bzWKU-256">
          <mxGeometry relative="1" as="geometry" />
        </mxCell>
        <mxCell id="Gb_D7QVCogXqmU0bzWKU-254" value="s" style="edgeLabel;html=1;align=center;verticalAlign=middle;resizable=0;points=[];" vertex="1" connectable="0" parent="Gb_D7QVCogXqmU0bzWKU-253">
          <mxGeometry x="-0.366" y="3" relative="1" as="geometry">
            <mxPoint as="offset" />
          </mxGeometry>
        </mxCell>
        <mxCell id="Gb_D7QVCogXqmU0bzWKU-255" value="contador == 10" style="rhombus;whiteSpace=wrap;html=1;" vertex="1" parent="1">
          <mxGeometry x="1697" y="1730" width="80" height="80" as="geometry" />
        </mxCell>
        <mxCell id="Gb_D7QVCogXqmU0bzWKU-256" value="fim" style="ellipse;whiteSpace=wrap;html=1;" vertex="1" parent="1">
          <mxGeometry x="1667" y="1890" width="120" height="80" as="geometry" />
        </mxCell>
        <mxCell id="Gb_D7QVCogXqmU0bzWKU-257" style="edgeStyle=orthogonalEdgeStyle;rounded=0;orthogonalLoop=1;jettySize=auto;html=1;entryX=1.019;entryY=0.632;entryDx=0;entryDy=0;entryPerimeter=0;" edge="1" parent="1" source="Gb_D7QVCogXqmU0bzWKU-255" target="Gb_D7QVCogXqmU0bzWKU-250">
          <mxGeometry relative="1" as="geometry">
            <Array as="points">
              <mxPoint x="1737" y="1668" />
            </Array>
          </mxGeometry>
        </mxCell>
        <mxCell id="Gb_D7QVCogXqmU0bzWKU-258" value="n" style="edgeLabel;html=1;align=center;verticalAlign=middle;resizable=0;points=[];" vertex="1" connectable="0" parent="Gb_D7QVCogXqmU0bzWKU-257">
          <mxGeometry x="-0.4187" y="4" relative="1" as="geometry">
            <mxPoint as="offset" />
          </mxGeometry>
        </mxCell>
      </root>
    </mxGraphModel>
  </diagram>
</mxfile>
